<svg xmlns="http://www.w3.org/2000/svg" viewBox="0 0 200 200"><rect width="200" height="200" fill="#f1f5f9"/><rect x="20" y="20" width="160" height="160" fill="#fff" stroke="#334155" stroke-width="4"/><g stroke="#cbd5e1" stroke-width="2"><line x1="52" y1="20" x2="52" y2="180"/><line x1="84" y1="20" x2="84" y2="180"/><line x1="116" y1="20" x2="116" y2="180"/><line x1="148" y1="20" x2="148" y2="180"/><line x1="20" y1="52" x2="180" y2="52"/><line x1="20" y1="84" x2="180" y2="84"/><line x1="20" y1="116" x2="180" y2="116"/><line x1="20" y1="148" x2="180" y2="148"/></g><g fill="#0f172a"><rect x="84" y="20" width="32" height="32"/><rect x="52" y="52" width="96" height="32"/><rect x="52" y="84" width="32" height="32"/><rect x="116" y="84" width="32" height="32"/><rect x="52" y="116" width="96" height="32"/><rect x="84" y="148" width="32" height="32"/></g></svg>
